<svg width="97" height="179" viewBox="0 0 97 179" fill="none" xmlns="http://www.w3.org/2000/svg">
<path d="M1.83557 164.444C1.83557 161.198 4.63482 159.157 6.86789 157.976C16.8324 152.709 38.0274 151.681 48.4531 151.681C53.7622 151.681 95.1645 152.126 95.1645 164.444C95.1645 176.763 53.7622 177.207 48.4531 177.207C43.1376 177.207 1.83557 176.767 1.83557 164.444Z" fill="#BDBCBC" stroke="#231F20" stroke-width="3.24592" stroke-miterlimit="3.864"/>
<path d="M1.83557 164.304C1.83557 161.058 4.63482 159.018 6.86789 157.835C16.8324 152.569 38.0274 151.541 48.4531 151.541C53.7622 151.541 95.1645 151.987 95.1645 164.304C95.1645 176.622 53.7622 177.068 48.4531 177.068C43.1376 177.068 1.83557 176.627 1.83557 164.304Z" fill="#BDBCBC" stroke="#231F20" stroke-width="3.24592" stroke-miterlimit="3.864"/>
<path d="M1.83557 164.165C1.83557 160.917 4.63482 158.878 6.86789 157.697C16.8324 152.428 38.0274 151.401 48.4531 151.401C53.7622 151.401 95.1645 151.847 95.1645 164.165C95.1645 176.482 53.7622 176.928 48.4531 176.928C43.1376 176.928 1.83557 176.488 1.83557 164.165Z" fill="#BDBCBC" stroke="#231F20" stroke-width="3.24592" stroke-miterlimit="3.864"/>
<path d="M1.83557 164.025C1.83557 160.779 4.63482 158.737 6.86789 157.557C16.8324 152.288 38.0274 151.262 48.4531 151.262C53.7622 151.262 95.1645 151.706 95.1645 164.025C95.1645 176.343 53.7622 176.788 48.4531 176.788C43.1376 176.788 1.83557 176.348 1.83557 164.025Z" fill="#BDBCBC" stroke="#231F20" stroke-width="3.24592" stroke-miterlimit="3.864"/>
<path d="M1.83557 163.885C1.83557 160.639 4.63482 158.597 6.86789 157.416C16.8324 152.15 38.0274 151.122 48.4531 151.122C53.7622 151.122 95.1645 151.566 95.1645 163.885C95.1645 176.203 53.7622 176.648 48.4531 176.648C43.1376 176.648 1.83557 176.208 1.83557 163.885Z" fill="#BDBCBC" stroke="#231F20" stroke-width="3.24592" stroke-miterlimit="3.864"/>
<path d="M1.83557 163.744C1.83557 160.498 4.63482 158.459 6.86789 157.278C16.8324 152.009 38.0274 150.981 48.4531 150.981C53.7622 150.981 95.1645 151.428 95.1645 163.744C95.1645 176.063 53.7622 176.509 48.4531 176.509C43.1376 176.509 1.83557 176.068 1.83557 163.744Z" fill="#BDBCBC" stroke="#231F20" stroke-width="3.24592" stroke-miterlimit="3.864"/>
<path d="M1.83557 163.606C1.83557 160.36 4.63482 158.318 6.86789 157.137C16.8324 151.869 38.0274 150.843 48.4531 150.843C53.7622 150.843 95.1645 151.287 95.1645 163.606C95.1645 175.923 53.7622 176.369 48.4531 176.369C43.1376 176.369 1.83557 175.929 1.83557 163.606Z" fill="#BDBCBC" stroke="#231F20" stroke-width="3.24592" stroke-miterlimit="3.864"/>
<path d="M1.83557 163.466C1.83557 160.219 4.63482 158.178 6.86789 156.997C16.8324 151.729 38.0274 150.703 48.4531 150.703C53.7622 150.703 95.1645 151.147 95.1645 163.466C95.1645 175.784 53.7622 176.229 48.4531 176.229C43.1376 176.229 1.83557 175.789 1.83557 163.466Z" fill="#BDBCBC" stroke="#231F20" stroke-width="3.24592" stroke-miterlimit="3.864"/>
<path d="M1.83557 163.325C1.83557 160.079 4.63482 158.038 6.86789 156.857C16.8324 151.59 38.0274 150.562 48.4531 150.562C53.7622 150.562 95.1645 151.009 95.1645 163.325C95.1645 175.644 53.7622 176.088 48.4531 176.088C43.1376 176.088 1.83557 175.649 1.83557 163.325Z" fill="#BDBCBC" stroke="#231F20" stroke-width="3.24592" stroke-miterlimit="3.864"/>
<path d="M1.83557 163.185C1.83557 159.939 4.63482 157.899 6.86789 156.718C16.8324 151.45 38.0274 150.422 48.4531 150.422C53.7622 150.422 95.1645 150.868 95.1645 163.185C95.1645 175.504 53.7622 175.95 48.4531 175.95C43.1376 175.95 1.83557 175.508 1.83557 163.185Z" fill="#BDBCBC" stroke="#231F20" stroke-width="3.24592" stroke-miterlimit="3.864"/>
<path d="M1.83557 163.046C1.83557 159.8 4.63482 157.759 6.86789 156.578C16.8324 151.31 38.0274 150.283 48.4531 150.283C53.7622 150.283 95.1645 150.728 95.1645 163.046C95.1645 175.363 53.7622 175.81 48.4531 175.81C43.1376 175.81 1.83557 175.37 1.83557 163.046Z" fill="#BDBCBC" stroke="#231F20" stroke-width="3.24592" stroke-miterlimit="3.864"/>
<path d="M1.83557 162.906C1.83557 159.66 4.63482 157.619 6.86789 156.438C16.8324 151.169 38.0274 150.143 48.4531 150.143C53.7622 150.143 95.1645 150.588 95.1645 162.906C95.1645 175.225 53.7622 175.669 48.4531 175.669C43.1376 175.669 1.83557 175.229 1.83557 162.906Z" fill="#BDBCBC" stroke="#231F20" stroke-width="3.24592" stroke-miterlimit="3.864"/>
<path d="M1.83557 162.766C1.83557 159.52 4.63482 157.478 6.86789 156.298C16.8324 151.031 38.0274 150.003 48.4531 150.003C53.7622 150.003 95.1645 150.449 95.1645 162.766C95.1645 175.084 53.7622 175.531 48.4531 175.531C43.1376 175.531 1.83557 175.089 1.83557 162.766Z" fill="#BDBCBC" stroke="#231F20" stroke-width="3.24592" stroke-miterlimit="3.864"/>
<path d="M1.83557 162.627C1.83557 159.38 4.63482 157.34 6.86789 156.159C16.8324 150.891 38.0274 149.863 48.4531 149.863C53.7622 149.863 95.1645 150.309 95.1645 162.627C95.1645 174.944 53.7622 175.39 48.4531 175.39C43.1376 175.39 1.83557 174.949 1.83557 162.627Z" fill="#BDBCBC" stroke="#231F20" stroke-width="3.24592" stroke-miterlimit="3.864"/>
<path d="M1.83557 162.487C1.83557 159.241 4.63482 157.2 6.86789 156.019C16.8324 150.75 38.0274 149.724 48.4531 149.724C53.7622 149.724 95.1645 150.169 95.1645 162.487C95.1645 174.804 53.7622 175.25 48.4531 175.25C43.1376 175.25 1.83557 174.81 1.83557 162.487Z" fill="#BDBCBC" stroke="#231F20" stroke-width="3.24592" stroke-miterlimit="3.864"/>
<path d="M1.83557 162.347C1.83557 159.101 4.63482 157.059 6.86789 155.879C16.8324 150.61 38.0274 149.584 48.4531 149.584C53.7622 149.584 95.1645 150.028 95.1645 162.347C95.1645 174.665 53.7622 175.11 48.4531 175.11C43.1376 175.11 1.83557 174.67 1.83557 162.347Z" fill="#BDBCBC" stroke="#231F20" stroke-width="3.24592" stroke-miterlimit="3.864"/>
<path d="M1.83557 162.207C1.83557 158.961 4.63482 156.919 6.86789 155.738C16.8324 150.471 38.0274 149.444 48.4531 149.444C53.7622 149.444 95.1645 149.89 95.1645 162.207C95.1645 174.525 53.7622 174.971 48.4531 174.971C43.1376 174.971 1.83557 174.53 1.83557 162.207Z" fill="#BDBCBC" stroke="#231F20" stroke-width="3.24592" stroke-miterlimit="3.864"/>
<path d="M1.83557 162.066C1.83557 158.82 4.63482 156.781 6.86789 155.6C16.8324 150.331 38.0274 149.303 48.4531 149.303C53.7622 149.303 95.1645 149.75 95.1645 162.066C95.1645 174.385 53.7622 174.831 48.4531 174.831C43.1376 174.831 1.83557 174.39 1.83557 162.066Z" fill="#BDBCBC" stroke="#231F20" stroke-width="3.24592" stroke-miterlimit="3.864"/>
<path d="M1.83557 161.928C1.83557 158.682 4.63482 156.64 6.86789 155.459C16.8324 150.191 38.0274 149.165 48.4531 149.165C53.7622 149.165 95.1645 149.609 95.1645 161.928C95.1645 174.245 53.7622 174.691 48.4531 174.691C43.1376 174.691 1.83557 174.251 1.83557 161.928Z" fill="#BDBCBC" stroke="#231F20" stroke-width="3.24592" stroke-miterlimit="3.864"/>
<path d="M1.83557 161.788C1.83557 158.541 4.63482 156.5 6.86789 155.319C16.8324 150.051 38.0274 149.025 48.4531 149.025C53.7622 149.025 95.1645 149.469 95.1645 161.788C95.1645 174.106 53.7622 174.551 48.4531 174.551C43.1376 174.551 1.83557 174.111 1.83557 161.788Z" fill="#BDBCBC" stroke="#231F20" stroke-width="3.24592" stroke-miterlimit="3.864"/>
<path d="M1.83557 161.647C1.83557 158.401 4.63482 156.361 6.86789 155.179C16.8324 149.912 38.0274 148.884 48.4531 148.884C53.7622 148.884 95.1645 149.33 95.1645 161.647C95.1645 173.966 53.7622 174.412 48.4531 174.412C43.1376 174.412 1.83557 173.971 1.83557 161.647Z" fill="#BDBCBC" stroke="#231F20" stroke-width="3.24592" stroke-miterlimit="3.864"/>
<path d="M1.83557 161.509C1.83557 158.261 4.63482 156.221 6.86789 155.04C16.8324 149.772 38.0274 148.744 48.4531 148.744C53.7622 148.744 95.1645 149.19 95.1645 161.509C95.1645 173.826 53.7622 174.272 48.4531 174.272C43.1376 174.272 1.83557 173.83 1.83557 161.509Z" fill="#BDBCBC" stroke="#231F20" stroke-width="3.24592" stroke-miterlimit="3.864"/>
<path d="M1.83557 161.368C1.83557 158.122 4.63482 156.081 6.86789 154.9C16.8324 149.632 38.0274 148.605 48.4531 148.605C53.7622 148.605 95.1645 149.05 95.1645 161.368C95.1645 173.687 53.7622 174.131 48.4531 174.131C43.1376 174.131 1.83557 173.692 1.83557 161.368Z" fill="#BDBCBC" stroke="#231F20" stroke-width="3.24592" stroke-miterlimit="3.864"/>
<path d="M1.83557 161.228C1.83557 157.982 4.63482 155.941 6.86789 154.76C16.8324 149.493 38.0274 148.465 48.4531 148.465C53.7622 148.465 95.1645 148.91 95.1645 161.228C95.1645 173.547 53.7622 173.991 48.4531 173.991C43.1376 173.991 1.83557 173.551 1.83557 161.228Z" fill="#BDBCBC" stroke="#231F20" stroke-width="3.24592" stroke-miterlimit="3.864"/>
<path d="M1.83557 161.088C1.83557 157.842 4.63482 155.802 6.86789 154.621C16.8324 149.353 38.0274 148.325 48.4531 148.325C53.7622 148.325 95.1645 148.771 95.1645 161.088C95.1645 173.406 53.7622 173.853 48.4531 173.853C43.1376 173.853 1.83557 173.411 1.83557 161.088Z" fill="#BDBCBC" stroke="#231F20" stroke-width="3.24592" stroke-miterlimit="3.864"/>
<path d="M6.86789 158.116C16.8324 152.848 38.0274 151.821 48.4531 151.821C53.7622 151.821 95.1645 152.266 95.1645 164.584C95.1645 176.903 53.7622 177.347 48.4531 177.347C43.1376 177.347 1.83557 176.907 1.83557 164.584C1.83557 161.338 4.63482 159.297 6.86789 158.116Z" fill="#A5A5A7"/>
<path d="M1.83557 164.444C1.83557 161.198 4.63482 159.157 6.86789 157.976C16.8324 152.709 38.0274 151.681 48.4531 151.681C53.7622 151.681 95.1645 152.126 95.1645 164.444C95.1645 176.763 53.7622 177.207 48.4531 177.207C43.1376 177.207 1.83557 176.767 1.83557 164.444Z" fill="#A5A5A7"/>
<path d="M1.83557 164.304C1.83557 161.058 4.63482 159.018 6.86789 157.835C16.8324 152.569 38.0274 151.541 48.4531 151.541C53.7622 151.541 95.1645 151.987 95.1645 164.304C95.1645 176.622 53.7622 177.068 48.4531 177.068C43.1376 177.068 1.83557 176.627 1.83557 164.304Z" fill="#A5A5A7"/>
<path d="M1.83557 164.165C1.83557 160.917 4.63482 158.878 6.86789 157.697C16.8324 152.428 38.0274 151.401 48.4531 151.401C53.7622 151.401 95.1645 151.847 95.1645 164.165C95.1645 176.482 53.7622 176.928 48.4531 176.928C43.1376 176.928 1.83557 176.488 1.83557 164.165Z" fill="#A5A5A7"/>
<path d="M1.83557 164.025C1.83557 160.779 4.63482 158.737 6.86789 157.557C16.8324 152.288 38.0274 151.262 48.4531 151.262C53.7622 151.262 95.1645 151.706 95.1645 164.025C95.1645 176.343 53.7622 176.788 48.4531 176.788C43.1376 176.788 1.83557 176.348 1.83557 164.025Z" fill="#A5A5A7"/>
<path d="M1.83557 163.885C1.83557 160.639 4.63482 158.597 6.86789 157.416C16.8324 152.15 38.0274 151.122 48.4531 151.122C53.7622 151.122 95.1645 151.566 95.1645 163.885C95.1645 176.203 53.7622 176.648 48.4531 176.648C43.1376 176.648 1.83557 176.208 1.83557 163.885Z" fill="#A5A5A7"/>
<path d="M1.83557 163.744C1.83557 160.498 4.63482 158.459 6.86789 157.278C16.8324 152.009 38.0274 150.981 48.4531 150.981C53.7622 150.981 95.1645 151.428 95.1645 163.744C95.1645 176.063 53.7622 176.509 48.4531 176.509C43.1376 176.509 1.83557 176.068 1.83557 163.744Z" fill="#A5A5A7"/>
<path d="M1.83557 163.606C1.83557 160.36 4.63482 158.318 6.86789 157.137C16.8324 151.869 38.0274 150.843 48.4531 150.843C53.7622 150.843 95.1645 151.287 95.1645 163.606C95.1645 175.923 53.7622 176.369 48.4531 176.369C43.1376 176.369 1.83557 175.929 1.83557 163.606Z" fill="#A5A5A7"/>
<path d="M1.83557 163.466C1.83557 160.219 4.63482 158.178 6.86789 156.997C16.8324 151.729 38.0274 150.703 48.4531 150.703C53.7622 150.703 95.1645 151.147 95.1645 163.466C95.1645 175.784 53.7622 176.229 48.4531 176.229C43.1376 176.229 1.83557 175.789 1.83557 163.466Z" fill="#A5A5A7"/>
<path d="M1.83557 163.325C1.83557 160.079 4.63482 158.038 6.86789 156.857C16.8324 151.59 38.0274 150.562 48.4531 150.562C53.7622 150.562 95.1645 151.009 95.1645 163.325C95.1645 175.644 53.7622 176.088 48.4531 176.088C43.1376 176.088 1.83557 175.649 1.83557 163.325Z" fill="#A5A5A7"/>
<path d="M1.83557 163.185C1.83557 159.939 4.63482 157.899 6.86789 156.718C16.8324 151.45 38.0274 150.422 48.4531 150.422C53.7622 150.422 95.1645 150.868 95.1645 163.185C95.1645 175.504 53.7622 175.95 48.4531 175.95C43.1376 175.95 1.83557 175.508 1.83557 163.185Z" fill="#A5A5A7"/>
<path d="M1.83557 163.046C1.83557 159.8 4.63482 157.759 6.86789 156.578C16.8324 151.31 38.0274 150.283 48.4531 150.283C53.7622 150.283 95.1645 150.728 95.1645 163.046C95.1645 175.363 53.7622 175.81 48.4531 175.81C43.1376 175.81 1.83557 175.37 1.83557 163.046Z" fill="#A5A5A7"/>
<path d="M1.83557 162.906C1.83557 159.66 4.63482 157.619 6.86789 156.438C16.8324 151.169 38.0274 150.143 48.4531 150.143C53.7622 150.143 95.1645 150.588 95.1645 162.906C95.1645 175.225 53.7622 175.669 48.4531 175.669C43.1376 175.669 1.83557 175.229 1.83557 162.906Z" fill="#A5A5A7"/>
<path d="M1.83557 162.766C1.83557 159.52 4.63482 157.478 6.86789 156.298C16.8324 151.031 38.0274 150.003 48.4531 150.003C53.7622 150.003 95.1645 150.449 95.1645 162.766C95.1645 175.084 53.7622 175.531 48.4531 175.531C43.1376 175.531 1.83557 175.089 1.83557 162.766Z" fill="#A5A5A7"/>
<path d="M1.83557 162.627C1.83557 159.38 4.63482 157.34 6.86789 156.159C16.8324 150.891 38.0274 149.863 48.4531 149.863C53.7622 149.863 95.1645 150.309 95.1645 162.627C95.1645 174.944 53.7622 175.39 48.4531 175.39C43.1376 175.39 1.83557 174.949 1.83557 162.627Z" fill="#A5A5A7"/>
<path d="M1.83557 162.487C1.83557 159.241 4.63482 157.2 6.86789 156.019C16.8324 150.75 38.0274 149.724 48.4531 149.724C53.7622 149.724 95.1645 150.169 95.1645 162.487C95.1645 174.804 53.7622 175.25 48.4531 175.25C43.1376 175.25 1.83557 174.81 1.83557 162.487Z" fill="#A5A5A7"/>
<path d="M1.83557 162.347C1.83557 159.101 4.63482 157.059 6.86789 155.879C16.8324 150.61 38.0274 149.584 48.4531 149.584C53.7622 149.584 95.1645 150.028 95.1645 162.347C95.1645 174.665 53.7622 175.11 48.4531 175.11C43.1376 175.11 1.83557 174.67 1.83557 162.347Z" fill="#A5A5A7"/>
<path d="M1.83557 162.207C1.83557 158.961 4.63482 156.919 6.86789 155.738C16.8324 150.471 38.0274 149.444 48.4531 149.444C53.7622 149.444 95.1645 149.89 95.1645 162.207C95.1645 174.525 53.7622 174.971 48.4531 174.971C43.1376 174.971 1.83557 174.53 1.83557 162.207Z" fill="#A5A5A7"/>
<path d="M1.83557 162.066C1.83557 158.82 4.63482 156.781 6.86789 155.6C16.8324 150.331 38.0274 149.303 48.4531 149.303C53.7622 149.303 95.1645 149.75 95.1645 162.066C95.1645 174.385 53.7622 174.831 48.4531 174.831C43.1376 174.831 1.83557 174.39 1.83557 162.066Z" fill="#A5A5A7"/>
<path d="M1.83557 161.928C1.83557 158.682 4.63482 156.64 6.86789 155.459C16.8324 150.191 38.0274 149.165 48.4531 149.165C53.7622 149.165 95.1645 149.609 95.1645 161.928C95.1645 174.245 53.7622 174.691 48.4531 174.691C43.1376 174.691 1.83557 174.251 1.83557 161.928Z" fill="#A5A5A7"/>
<path d="M1.83557 161.788C1.83557 158.541 4.63482 156.5 6.86789 155.319C16.8324 150.051 38.0274 149.025 48.4531 149.025C53.7622 149.025 95.1645 149.469 95.1645 161.788C95.1645 174.106 53.7622 174.551 48.4531 174.551C43.1376 174.551 1.83557 174.111 1.83557 161.788Z" fill="#A5A5A7"/>
<path d="M1.83557 161.647C1.83557 158.401 4.63482 156.361 6.86789 155.179C16.8324 149.912 38.0274 148.884 48.4531 148.884C53.7622 148.884 95.1645 149.33 95.1645 161.647C95.1645 173.966 53.7622 174.412 48.4531 174.412C43.1376 174.412 1.83557 173.971 1.83557 161.647Z" fill="#A5A5A7"/>
<path d="M1.83557 161.509C1.83557 158.261 4.63482 156.221 6.86789 155.04C16.8324 149.772 38.0274 148.744 48.4531 148.744C53.7622 148.744 95.1645 149.19 95.1645 161.509C95.1645 173.826 53.7622 174.272 48.4531 174.272C43.1376 174.272 1.83557 173.83 1.83557 161.509Z" fill="#A5A5A7"/>
<path d="M1.83557 161.368C1.83557 158.122 4.63482 156.081 6.86789 154.9C16.8324 149.632 38.0274 148.605 48.4531 148.605C53.7622 148.605 95.1645 149.05 95.1645 161.368C95.1645 173.687 53.7622 174.131 48.4531 174.131C43.1376 174.131 1.83557 173.692 1.83557 161.368Z" fill="#A5A5A7"/>
<path d="M1.83557 161.228C1.83557 157.982 4.63482 155.941 6.86789 154.76C16.8324 149.493 38.0274 148.465 48.4531 148.465C53.7622 148.465 95.1645 148.91 95.1645 161.228C95.1645 173.547 53.7622 173.991 48.4531 173.991C43.1376 173.991 1.83557 173.551 1.83557 161.228Z" fill="#A5A5A7"/>
<path d="M1.83557 161.088C1.83557 157.842 4.63482 155.802 6.86789 154.621C16.8324 149.353 38.0274 148.325 48.4531 148.325C53.7622 148.325 95.1645 148.771 95.1645 161.088C95.1645 173.406 53.7622 173.853 48.4531 173.853C43.1376 173.853 1.83557 173.411 1.83557 161.088Z" fill="#A5A5A7"/>
<path d="M6.86789 154.481C16.8324 149.213 38.0274 148.185 48.4531 148.185C53.7622 148.185 95.1645 148.631 95.1645 160.949C95.1645 173.266 53.7622 173.712 48.4531 173.712C43.1376 173.712 1.83557 173.273 1.83557 160.949C1.83557 157.702 4.63482 155.662 6.86789 154.481Z" fill="#A5A5A7"/>
<path d="M1.83557 35.2089C1.83557 31.9628 4.63482 29.9214 6.86789 28.7405C16.8324 23.4721 38.0274 22.4459 48.4531 22.4459C53.7622 22.4459 95.1645 22.8904 95.1645 35.2089C95.1645 47.5257 53.7622 47.9719 48.4531 47.9719C43.1376 47.9719 1.83557 47.5321 1.83557 35.2089Z" fill="#BDBCBC" stroke="#231F20" stroke-width="3.24592" stroke-miterlimit="3.864"/>
<path d="M1.83557 35.0686C1.83557 31.8225 4.63482 29.7811 6.86789 28.6002C16.8324 23.3318 38.0274 22.3056 48.4531 22.3056C53.7622 22.3056 95.1645 22.7502 95.1645 35.0686C95.1645 47.3871 53.7622 47.8317 48.4531 47.8317C43.1376 47.8317 1.83557 47.3919 1.83557 35.0686Z" fill="#BDBCBC" stroke="#231F20" stroke-width="3.24592" stroke-miterlimit="3.864"/>
<path d="M1.83557 34.9284C1.83557 31.6823 4.63482 29.6425 6.86789 28.46C16.8324 23.1932 38.0274 22.1654 48.4531 22.1654C53.7622 22.1654 95.1645 22.6116 95.1645 34.9284C95.1645 47.2468 53.7622 47.693 48.4531 47.693C43.1376 47.693 1.83557 47.2516 1.83557 34.9284Z" fill="#BDBCBC" stroke="#231F20" stroke-width="3.24592" stroke-miterlimit="3.864"/>
<path d="M1.83557 34.7898C1.83557 31.542 4.63482 29.5022 6.86789 28.3214C16.8324 23.053 38.0274 22.0251 48.4531 22.0251C53.7622 22.0251 95.1645 22.4713 95.1645 34.7898C95.1645 47.1066 53.7622 47.5528 48.4531 47.5528C43.1376 47.5528 1.83557 47.1114 1.83557 34.7898Z" fill="#BDBCBC" stroke="#231F20" stroke-width="3.24592" stroke-miterlimit="3.864"/>
<path d="M1.83557 34.6495C1.83557 31.4034 4.63482 29.362 6.86789 28.1811C16.8324 22.9127 38.0274 21.8865 48.4531 21.8865C53.7622 21.8865 95.1645 22.3311 95.1645 34.6495C95.1645 46.9664 53.7622 47.4126 48.4531 47.4126C43.1376 47.4126 1.83557 46.9727 1.83557 34.6495Z" fill="#BDBCBC" stroke="#231F20" stroke-width="3.24592" stroke-miterlimit="3.864"/>
<path d="M1.83557 34.5093C1.83557 31.2631 4.63482 29.2217 6.86789 28.0409C16.8324 22.7741 38.0274 21.7462 48.4531 21.7462C53.7622 21.7462 95.1645 22.1908 95.1645 34.5093C95.1645 46.8277 53.7622 47.2724 48.4531 47.2724C43.1376 47.2724 1.83557 46.8325 1.83557 34.5093Z" fill="#BDBCBC" stroke="#231F20" stroke-width="3.24592" stroke-miterlimit="3.864"/>
<path d="M1.83557 34.369C1.83557 31.1229 4.63482 29.0831 6.86789 27.9007C16.8324 22.6339 38.0274 21.606 48.4531 21.606C53.7622 21.606 95.1645 22.0522 95.1645 34.369C95.1645 46.6875 53.7622 47.1337 48.4531 47.1337C43.1376 47.1337 1.83557 46.6923 1.83557 34.369Z" fill="#BDBCBC" stroke="#231F20" stroke-width="3.24592" stroke-miterlimit="3.864"/>
<path d="M1.83557 34.2304C1.83557 30.9826 4.63482 28.9429 6.86789 27.762C16.8324 22.4936 38.0274 21.4658 48.4531 21.4658C53.7622 21.4658 95.1645 21.9119 95.1645 34.2304C95.1645 46.5472 53.7622 46.9935 48.4531 46.9935C43.1376 46.9935 1.83557 46.552 1.83557 34.2304Z" fill="#BDBCBC" stroke="#231F20" stroke-width="3.24592" stroke-miterlimit="3.864"/>
<path d="M1.83557 34.0902C1.83557 30.8441 4.63482 28.8027 6.86789 27.6218C16.8324 22.3534 38.0274 21.3272 48.4531 21.3272C53.7622 21.3272 95.1645 21.7718 95.1645 34.0902C95.1645 46.407 53.7622 46.8532 48.4531 46.8532C43.1376 46.8532 1.83557 46.4134 1.83557 34.0902Z" fill="#BDBCBC" stroke="#231F20" stroke-width="3.24592" stroke-miterlimit="3.864"/>
<path d="M1.83557 33.9499C1.83557 30.7038 4.63482 28.6624 6.86789 27.4815C16.8324 22.2131 38.0274 21.1869 48.4531 21.1869C53.7622 21.1869 95.1645 21.6315 95.1645 33.9499C95.1645 46.2683 53.7622 46.713 48.4531 46.713C43.1376 46.713 1.83557 46.2731 1.83557 33.9499Z" fill="#BDBCBC" stroke="#231F20" stroke-width="3.24592" stroke-miterlimit="3.864"/>
<path d="M1.83557 33.8097C1.83557 30.5636 4.63482 28.5238 6.86789 27.3413C16.8324 22.0745 38.0274 21.0467 48.4531 21.0467C53.7622 21.0467 95.1645 21.4929 95.1645 33.8097C95.1645 46.1282 53.7622 46.5743 48.4531 46.5743C43.1376 46.5743 1.83557 46.1329 1.83557 33.8097Z" fill="#BDBCBC" stroke="#231F20" stroke-width="3.24592" stroke-miterlimit="3.864"/>
<path d="M1.83557 33.671C1.83557 30.4233 4.63482 28.3835 6.86789 27.2027C16.8324 21.9342 38.0274 20.9064 48.4531 20.9064C53.7622 20.9064 95.1645 21.3526 95.1645 33.671C95.1645 45.9879 53.7622 46.4341 48.4531 46.4341C43.1376 46.4341 1.83557 45.9927 1.83557 33.671Z" fill="#BDBCBC" stroke="#231F20" stroke-width="3.24592" stroke-miterlimit="3.864"/>
<path d="M1.83557 33.5308C1.83557 30.2847 4.63482 28.2433 6.86789 27.0625C16.8324 21.7941 38.0274 20.7678 48.4531 20.7678C53.7622 20.7678 95.1645 21.2124 95.1645 33.5308C95.1645 45.8477 53.7622 46.2939 48.4531 46.2939C43.1376 46.2939 1.83557 45.854 1.83557 33.5308Z" fill="#BDBCBC" stroke="#231F20" stroke-width="3.24592" stroke-miterlimit="3.864"/>
<path d="M1.83557 33.3906C1.83557 30.1445 4.63482 28.1031 6.86789 26.9222C16.8324 21.6554 38.0274 20.6276 48.4531 20.6276C53.7622 20.6276 95.1645 21.0722 95.1645 33.3906C95.1645 45.709 53.7622 46.1536 48.4531 46.1536C43.1376 46.1536 1.83557 45.7138 1.83557 33.3906Z" fill="#BDBCBC" stroke="#231F20" stroke-width="3.24592" stroke-miterlimit="3.864"/>
<path d="M1.83557 33.2504C1.83557 30.0042 4.63482 27.9644 6.86789 26.782C16.8324 21.5152 38.0274 20.4873 48.4531 20.4873C53.7622 20.4873 95.1645 20.9335 95.1645 33.2504C95.1645 45.5688 53.7622 46.015 48.4531 46.015C43.1376 46.015 1.83557 45.5736 1.83557 33.2504Z" fill="#BDBCBC" stroke="#231F20" stroke-width="3.24592" stroke-miterlimit="3.864"/>
<path d="M1.83557 33.1117C1.83557 29.864 4.63482 27.8242 6.86789 26.6433C16.8324 21.3749 38.0274 20.3471 48.4531 20.3471C53.7622 20.3471 95.1645 20.7933 95.1645 33.1117C95.1645 45.4285 53.7622 45.8748 48.4531 45.8748C43.1376 45.8748 1.83557 45.4349 1.83557 33.1117Z" fill="#BDBCBC" stroke="#231F20" stroke-width="3.24592" stroke-miterlimit="3.864"/>
<path d="M1.83557 32.9715C1.83557 29.7254 4.63482 27.684 6.86789 26.5031C16.8324 21.2347 38.0274 20.2084 48.4531 20.2084C53.7622 20.2084 95.1645 20.6531 95.1645 32.9715C95.1645 45.29 53.7622 45.7345 48.4531 45.7345C43.1376 45.7345 1.83557 45.2947 1.83557 32.9715Z" fill="#BDBCBC" stroke="#231F20" stroke-width="3.24592" stroke-miterlimit="3.864"/>
<path d="M1.83557 32.8312C1.83557 29.5851 4.63482 27.5437 6.86789 26.3629C16.8324 21.0944 38.0274 20.0682 48.4531 20.0682C53.7622 20.0682 95.1645 20.5144 95.1645 32.8312C95.1645 45.1497 53.7622 45.5943 48.4531 45.5943C43.1376 45.5943 1.83557 45.1544 1.83557 32.8312Z" fill="#BDBCBC" stroke="#231F20" stroke-width="3.24592" stroke-miterlimit="3.864"/>
<path d="M1.83557 32.691C1.83557 29.4449 4.63482 27.4051 6.86789 26.2243C16.8324 20.9559 38.0274 19.928 48.4531 19.928C53.7622 19.928 95.1645 20.3742 95.1645 32.691C95.1645 45.0095 53.7622 45.4557 48.4531 45.4557C43.1376 45.4557 1.83557 45.0143 1.83557 32.691Z" fill="#BDBCBC" stroke="#231F20" stroke-width="3.24592" stroke-miterlimit="3.864"/>
<path d="M1.83557 32.5523C1.83557 29.3046 4.63482 27.2648 6.86789 26.084C16.8324 20.8156 38.0274 19.7893 48.4531 19.7893C53.7622 19.7893 95.1645 20.2339 95.1645 32.5523C95.1645 44.8692 53.7622 45.3154 48.4531 45.3154C43.1376 45.3154 1.83557 44.8755 1.83557 32.5523Z" fill="#BDBCBC" stroke="#231F20" stroke-width="3.24592" stroke-miterlimit="3.864"/>
<path d="M1.83557 32.4121C1.83557 29.166 4.63482 27.1246 6.86789 25.9438C16.8324 20.6754 38.0274 19.6491 48.4531 19.6491C53.7622 19.6491 95.1645 20.0937 95.1645 32.4121C95.1645 44.7306 53.7622 45.1752 48.4531 45.1752C43.1376 45.1752 1.83557 44.7353 1.83557 32.4121Z" fill="#BDBCBC" stroke="#231F20" stroke-width="3.24592" stroke-miterlimit="3.864"/>
<path d="M1.83557 32.2719C1.83557 29.0257 4.63482 26.9844 6.86789 25.8035C16.8324 20.5367 38.0274 19.5089 48.4531 19.5089C53.7622 19.5089 95.1645 19.955 95.1645 32.2719C95.1645 44.5903 53.7622 45.035 48.4531 45.035C43.1376 45.035 1.83557 44.5951 1.83557 32.2719Z" fill="#BDBCBC" stroke="#231F20" stroke-width="3.24592" stroke-miterlimit="3.864"/>
<path d="M1.83557 32.1317C1.83557 28.8855 4.63482 26.8457 6.86789 25.6649C16.8324 20.3965 38.0274 19.3686 48.4531 19.3686C53.7622 19.3686 95.1645 19.8148 95.1645 32.1317C95.1645 44.4501 53.7622 44.8963 48.4531 44.8963C43.1376 44.8963 1.83557 44.4549 1.83557 32.1317Z" fill="#BDBCBC" stroke="#231F20" stroke-width="3.24592" stroke-miterlimit="3.864"/>
<path d="M1.83557 31.993C1.83557 28.7469 4.63482 26.7055 6.86789 25.5246C16.8324 20.2562 38.0274 19.23 48.4531 19.23C53.7622 19.23 95.1645 19.6746 95.1645 31.993C95.1645 44.3099 53.7622 44.756 48.4531 44.756C43.1376 44.756 1.83557 44.3162 1.83557 31.993Z" fill="#BDBCBC" stroke="#231F20" stroke-width="3.24592" stroke-miterlimit="3.864"/>
<path d="M1.83557 31.8528C1.83557 28.6066 4.63482 26.5653 6.86789 25.3844C16.8324 20.116 38.0274 19.0897 48.4531 19.0897C53.7622 19.0897 95.1645 19.5343 95.1645 31.8528C95.1645 44.1712 53.7622 44.6158 48.4531 44.6158C43.1376 44.6158 1.83557 44.176 1.83557 31.8528Z" fill="#BDBCBC" stroke="#231F20" stroke-width="3.24592" stroke-miterlimit="3.864"/>
<path d="M4.8209 35.3475C4.8209 29.9723 24.3348 25.6139 48.4531 25.6139C72.5714 25.6139 92.1218 29.9723 92.1218 35.3475L92.0917 160.243C92.0917 165.619 72.5714 169.799 48.4531 169.799C24.3348 169.799 4.78439 165.44 4.78439 160.065L4.8209 35.3475Z" fill="#BDBCBC"/>
<path d="M6.86789 28.8807C16.8324 23.6123 38.0274 22.5844 48.4531 22.5844C53.7622 22.5844 95.1645 23.0306 95.1645 35.3475C95.1645 47.6659 53.7622 48.1122 48.4531 48.1122C43.1376 48.1122 1.83557 47.6707 1.83557 35.3475C1.83557 32.1013 4.63482 30.0616 6.86789 28.8807Z" fill="#A5A5A7" stroke="#231F20" stroke-width="3.24592" stroke-miterlimit="3.864"/>
<path d="M4.8209 35.3475C4.8209 29.9723 24.3348 25.6139 48.4531 25.6139C72.5714 25.6139 92.1218 29.9723 92.1218 35.3475L92.0917 160.243C92.0917 165.619 72.5714 169.799 48.4531 169.799C24.3348 169.799 4.78439 165.44 4.78439 160.065L4.8209 35.3475V35.3475Z" stroke="#231F20" stroke-width="1.21749" stroke-miterlimit="3.864"/>
<path d="M6.86789 28.8807C16.8324 23.6123 38.0274 22.5844 48.4531 22.5844C53.7622 22.5844 95.1645 23.0306 95.1645 35.3475C95.1645 47.6659 53.7622 48.1122 48.4531 48.1122C43.1376 48.1122 1.83557 47.6707 1.83557 35.3475C1.83557 32.1013 4.63482 30.0616 6.86789 28.8807Z" fill="#A5A5A7"/>
<path d="M1.83557 35.2089C1.83557 31.9628 4.63482 29.9214 6.86789 28.7405C16.8324 23.4721 38.0274 22.4459 48.4531 22.4459C53.7622 22.4459 95.1645 22.8904 95.1645 35.2089C95.1645 47.5257 53.7622 47.9719 48.4531 47.9719C43.1376 47.9719 1.83557 47.5321 1.83557 35.2089Z" fill="#A5A5A7"/>
<path d="M1.83557 35.0686C1.83557 31.8225 4.63482 29.7811 6.86789 28.6002C16.8324 23.3318 38.0274 22.3056 48.4531 22.3056C53.7622 22.3056 95.1645 22.7502 95.1645 35.0686C95.1645 47.3871 53.7622 47.8317 48.4531 47.8317C43.1376 47.8317 1.83557 47.3919 1.83557 35.0686Z" fill="#A5A5A7"/>
<path d="M1.83557 34.9284C1.83557 31.6823 4.63482 29.6425 6.86789 28.46C16.8324 23.1932 38.0274 22.1654 48.4531 22.1654C53.7622 22.1654 95.1645 22.6116 95.1645 34.9284C95.1645 47.2468 53.7622 47.693 48.4531 47.693C43.1376 47.693 1.83557 47.2516 1.83557 34.9284Z" fill="#A5A5A7"/>
<path d="M1.83557 34.7898C1.83557 31.542 4.63482 29.5022 6.86789 28.3214C16.8324 23.053 38.0274 22.0251 48.4531 22.0251C53.7622 22.0251 95.1645 22.4713 95.1645 34.7898C95.1645 47.1066 53.7622 47.5528 48.4531 47.5528C43.1376 47.5528 1.83557 47.1114 1.83557 34.7898Z" fill="#A5A5A7"/>
<path d="M1.83557 34.6495C1.83557 31.4034 4.63482 29.362 6.86789 28.1811C16.8324 22.9127 38.0274 21.8865 48.4531 21.8865C53.7622 21.8865 95.1645 22.3311 95.1645 34.6495C95.1645 46.9664 53.7622 47.4126 48.4531 47.4126C43.1376 47.4126 1.83557 46.9727 1.83557 34.6495Z" fill="#A5A5A7"/>
<path d="M1.83557 34.5093C1.83557 31.2631 4.63482 29.2217 6.86789 28.0409C16.8324 22.7741 38.0274 21.7462 48.4531 21.7462C53.7622 21.7462 95.1645 22.1908 95.1645 34.5093C95.1645 46.8277 53.7622 47.2724 48.4531 47.2724C43.1376 47.2724 1.83557 46.8325 1.83557 34.5093Z" fill="#A5A5A7"/>
<path d="M1.83557 34.369C1.83557 31.1229 4.63482 29.0831 6.86789 27.9007C16.8324 22.6339 38.0274 21.606 48.4531 21.606C53.7622 21.606 95.1645 22.0522 95.1645 34.369C95.1645 46.6875 53.7622 47.1337 48.4531 47.1337C43.1376 47.1337 1.83557 46.6923 1.83557 34.369Z" fill="#A5A5A7"/>
<path d="M1.83557 34.2304C1.83557 30.9826 4.63482 28.9429 6.86789 27.762C16.8324 22.4936 38.0274 21.4658 48.4531 21.4658C53.7622 21.4658 95.1645 21.9119 95.1645 34.2304C95.1645 46.5472 53.7622 46.9935 48.4531 46.9935C43.1376 46.9935 1.83557 46.552 1.83557 34.2304Z" fill="#A5A5A7"/>
<path d="M1.83557 34.0902C1.83557 30.8441 4.63482 28.8027 6.86789 27.6218C16.8324 22.3534 38.0274 21.3272 48.4531 21.3272C53.7622 21.3272 95.1645 21.7718 95.1645 34.0902C95.1645 46.407 53.7622 46.8532 48.4531 46.8532C43.1376 46.8532 1.83557 46.4134 1.83557 34.0902Z" fill="#A5A5A7"/>
<path d="M1.83557 33.9499C1.83557 30.7038 4.63482 28.6624 6.86789 27.4815C16.8324 22.2131 38.0274 21.1869 48.4531 21.1869C53.7622 21.1869 95.1645 21.6315 95.1645 33.9499C95.1645 46.2683 53.7622 46.713 48.4531 46.713C43.1376 46.713 1.83557 46.2731 1.83557 33.9499Z" fill="#A5A5A7"/>
<path d="M1.83557 33.8097C1.83557 30.5636 4.63482 28.5238 6.86789 27.3413C16.8324 22.0745 38.0274 21.0467 48.4531 21.0467C53.7622 21.0467 95.1645 21.4929 95.1645 33.8097C95.1645 46.1282 53.7622 46.5743 48.4531 46.5743C43.1376 46.5743 1.83557 46.1329 1.83557 33.8097Z" fill="#A5A5A7"/>
<path d="M1.83557 33.671C1.83557 30.4233 4.63482 28.3835 6.86789 27.2027C16.8324 21.9342 38.0274 20.9064 48.4531 20.9064C53.7622 20.9064 95.1645 21.3526 95.1645 33.671C95.1645 45.9879 53.7622 46.4341 48.4531 46.4341C43.1376 46.4341 1.83557 45.9927 1.83557 33.671Z" fill="#A5A5A7"/>
<path d="M1.83557 33.5308C1.83557 30.2847 4.63482 28.2433 6.86789 27.0625C16.8324 21.7941 38.0274 20.7678 48.4531 20.7678C53.7622 20.7678 95.1645 21.2124 95.1645 33.5308C95.1645 45.8477 53.7622 46.2939 48.4531 46.2939C43.1376 46.2939 1.83557 45.854 1.83557 33.5308Z" fill="#A5A5A7"/>
<path d="M1.83557 33.3906C1.83557 30.1445 4.63482 28.1031 6.86789 26.9222C16.8324 21.6554 38.0274 20.6276 48.4531 20.6276C53.7622 20.6276 95.1645 21.0722 95.1645 33.3906C95.1645 45.709 53.7622 46.1536 48.4531 46.1536C43.1376 46.1536 1.83557 45.7138 1.83557 33.3906Z" fill="#A5A5A7"/>
<path d="M1.83557 33.2504C1.83557 30.0042 4.63482 27.9644 6.86789 26.782C16.8324 21.5152 38.0274 20.4873 48.4531 20.4873C53.7622 20.4873 95.1645 20.9335 95.1645 33.2504C95.1645 45.5688 53.7622 46.015 48.4531 46.015C43.1376 46.015 1.83557 45.5736 1.83557 33.2504Z" fill="#A5A5A7"/>
<path d="M1.83557 33.1117C1.83557 29.864 4.63482 27.8242 6.86789 26.6433C16.8324 21.3749 38.0274 20.3471 48.4531 20.3471C53.7622 20.3471 95.1645 20.7933 95.1645 33.1117C95.1645 45.4285 53.7622 45.8748 48.4531 45.8748C43.1376 45.8748 1.83557 45.4349 1.83557 33.1117Z" fill="#A5A5A7"/>
<path d="M1.83557 32.9715C1.83557 29.7254 4.63482 27.684 6.86789 26.5031C16.8324 21.2347 38.0274 20.2084 48.4531 20.2084C53.7622 20.2084 95.1645 20.6531 95.1645 32.9715C95.1645 45.29 53.7622 45.7345 48.4531 45.7345C43.1376 45.7345 1.83557 45.2947 1.83557 32.9715Z" fill="#A5A5A7"/>
<path d="M1.83557 32.8312C1.83557 29.5851 4.63482 27.5437 6.86789 26.3629C16.8324 21.0944 38.0274 20.0682 48.4531 20.0682C53.7622 20.0682 95.1645 20.5144 95.1645 32.8312C95.1645 45.1497 53.7622 45.5943 48.4531 45.5943C43.1376 45.5943 1.83557 45.1544 1.83557 32.8312Z" fill="#A5A5A7"/>
<path d="M1.83557 32.691C1.83557 29.4449 4.63482 27.4051 6.86789 26.2243C16.8324 20.9559 38.0274 19.928 48.4531 19.928C53.7622 19.928 95.1645 20.3742 95.1645 32.691C95.1645 45.0095 53.7622 45.4557 48.4531 45.4557C43.1376 45.4557 1.83557 45.0143 1.83557 32.691Z" fill="#A5A5A7"/>
<path d="M1.83557 32.5523C1.83557 29.3046 4.63482 27.2648 6.86789 26.084C16.8324 20.8156 38.0274 19.7893 48.4531 19.7893C53.7622 19.7893 95.1645 20.2339 95.1645 32.5523C95.1645 44.8692 53.7622 45.3154 48.4531 45.3154C43.1376 45.3154 1.83557 44.8755 1.83557 32.5523Z" fill="#A5A5A7"/>
<path d="M1.83557 32.4121C1.83557 29.166 4.63482 27.1246 6.86789 25.9438C16.8324 20.6754 38.0274 19.6491 48.4531 19.6491C53.7622 19.6491 95.1645 20.0937 95.1645 32.4121C95.1645 44.7306 53.7622 45.1752 48.4531 45.1752C43.1376 45.1752 1.83557 44.7353 1.83557 32.4121Z" fill="#A5A5A7"/>
<path d="M1.83557 32.2719C1.83557 29.0257 4.63482 26.9844 6.86789 25.8035C16.8324 20.5367 38.0274 19.5089 48.4531 19.5089C53.7622 19.5089 95.1645 19.955 95.1645 32.2719C95.1645 44.5903 53.7622 45.035 48.4531 45.035C43.1376 45.035 1.83557 44.5951 1.83557 32.2719Z" fill="#A5A5A7"/>
<path d="M1.83557 32.1317C1.83557 28.8855 4.63482 26.8457 6.86789 25.6649C16.8324 20.3965 38.0274 19.3686 48.4531 19.3686C53.7622 19.3686 95.1645 19.8148 95.1645 32.1317C95.1645 44.4501 53.7622 44.8963 48.4531 44.8963C43.1376 44.8963 1.83557 44.4549 1.83557 32.1317Z" fill="#A5A5A7"/>
<path d="M1.83557 31.993C1.83557 28.7469 4.63482 26.7055 6.86789 25.5246C16.8324 20.2562 38.0274 19.23 48.4531 19.23C53.7622 19.23 95.1645 19.6746 95.1645 31.993C95.1645 44.3099 53.7622 44.756 48.4531 44.756C43.1376 44.756 1.83557 44.3162 1.83557 31.993Z" fill="#A5A5A7"/>
<path d="M1.83557 31.8528C1.83557 28.6066 4.63482 26.5653 6.86789 25.3844C16.8324 20.116 38.0274 19.0897 48.4531 19.0897C53.7622 19.0897 95.1645 19.5343 95.1645 31.8528C95.1645 44.1712 53.7622 44.6158 48.4531 44.6158C43.1376 44.6158 1.83557 44.176 1.83557 31.8528Z" fill="#A5A5A7"/>
<path d="M6.86789 25.2442C16.8324 19.9774 38.0274 18.9495 48.4531 18.9495C53.7622 18.9495 95.1645 19.3957 95.1645 31.7125C95.1645 44.031 53.7622 44.4772 48.4531 44.4772C43.1376 44.4772 1.83557 44.0357 1.83557 31.7125C1.83557 28.4664 4.63482 26.4266 6.86789 25.2442Z" fill="#A5A5A7"/>
<path d="M48.4531 23.7972C51.0329 23.7972 62.3811 23.9008 73.0835 25.5055C78.4578 26.3119 83.2818 27.4449 86.641 28.9477C88.319 29.6983 89.3401 30.417 89.8872 30.9875C90.1417 31.252 90.245 31.4353 90.2848 31.5246C90.2451 31.6138 90.1417 32.1731 89.8872 32.4392C89.3401 33.0097 88.319 33.7269 86.641 34.4774C83.2818 35.9802 78.4578 37.1148 73.0835 37.9196C62.3811 39.5243 51.0329 39.6295 48.4531 39.6295C45.8717 39.6295 34.5473 39.5259 23.8687 37.9228C18.5071 37.118 13.6975 35.9834 10.3495 34.4822C8.67626 33.7316 7.65836 33.0145 7.11283 32.4456C6.85993 32.1811 6.7565 31.9978 6.71674 31.907C6.71674 31.719 6.9156 30.7006 9.12639 29.5325C17.8407 24.9239 37.757 23.7972 48.4531 23.7972Z" fill="#D3D2D2"/>
<path d="M11.4024 31.3635C11.4024 29.84 16.8435 28.6034 23.5538 28.6034C30.2657 28.6034 35.7052 29.84 35.7052 31.3635C35.7052 32.8886 30.2657 34.1252 23.5538 34.1252C16.8435 34.1252 11.4024 32.8886 11.4024 31.3635Z" fill="#231F20" stroke="#231F20" stroke-width="0.810947" stroke-miterlimit="3.864"/>
<path d="M38.7971 28.527H47.8216L50.3123 35.0463H41.2878L38.7971 28.527ZM31.756 28.527H36.4431L38.9339 35.0463H34.2483L31.756 28.527ZM52.5788 34.4694L50.5286 29.1039C50.042 27.8306 48.1619 26.7979 46.3297 26.7979H32.2538C30.4215 26.7979 29.332 27.8306 29.8187 29.1039L31.8689 34.4694C32.3556 35.7443 34.2339 36.7769 36.0662 36.7769H50.1437C51.976 36.7769 53.0655 35.7443 52.5788 34.4694Z" fill="#A5A5A7"/>
<path d="M38.7971 28.527H47.8216L50.3123 35.0463H41.2878L38.7971 28.527ZM31.756 28.527H36.4431L38.9339 35.0463H34.2483L31.756 28.527ZM52.5788 34.4694L50.5286 29.1039C50.042 27.8306 48.1619 26.7979 46.3297 26.7979H32.2538C30.4215 26.7979 29.332 27.8306 29.8187 29.1039L31.8689 34.4694C32.3556 35.7443 34.2339 36.7769 36.0662 36.7769H50.1437C51.9759 36.7769 53.0655 35.7443 52.5788 34.4694Z" stroke="#231F20" stroke-width="0.463093" stroke-miterlimit="3.864"/>
<path d="M4.71115 138.559C58.4334 138.787 91.7894 109.249 91.7894 109.249V56.4403C91.7894 56.4403 58.4334 85.979 4.71115 85.7511V138.559Z" fill="white" stroke="#231F20" stroke-width="1.21749" stroke-miterlimit="3.864"/>
<path d="M24.2011 29.1899C24.2011 27.4337 25.6231 26.0091 27.3774 26.0091C29.1301 26.0091 30.552 27.4337 30.552 29.1899C30.552 30.9476 29.1301 32.3723 27.3774 32.3723C25.6231 32.3723 24.2011 30.9476 24.2011 29.1899Z" fill="#D3D2D2" stroke="white" stroke-width="0.404406" stroke-miterlimit="3.864"/>
<path d="M10.4147 10.819C10.4147 9.61265 11.3928 8.6326 12.5984 8.6326C13.804 8.6326 14.7806 9.61265 14.7806 10.819C14.7806 12.0269 13.804 13.007 12.5984 13.007C11.3928 13.007 10.4147 12.0269 10.4147 10.819Z" fill="#D3D2D2" stroke="#BDBCBC" stroke-width="0.404406" stroke-miterlimit="3.864"/>
<path d="M14.9588 22.8809C14.9588 21.6729 15.9369 20.6929 17.1425 20.6929C18.3481 20.6929 19.3247 21.6729 19.3247 22.8809C19.3247 24.0888 18.3481 25.0673 17.1425 25.0673C15.9369 25.0673 14.9588 24.0888 14.9588 22.8809Z" fill="#D3D2D2" stroke="white" stroke-width="0.404406" stroke-miterlimit="3.864"/>
<path d="M16.7227 17.5248C16.7227 15.7671 18.1445 14.3441 19.8973 14.3441C21.6516 14.3441 23.0719 15.7671 23.0719 17.5248C23.0719 19.281 21.6516 20.7057 19.8973 20.7057C18.1445 20.7057 16.7227 19.281 16.7227 17.5248Z" fill="#D3D2D2" stroke="#BDBCBC" stroke-width="0.404406" stroke-miterlimit="3.864"/>
<path d="M17.3158 2.85743C17.3158 1.64949 18.294 0.671035 19.4996 0.671035C20.7052 0.671035 21.6817 1.64949 21.6817 2.85743C21.6817 4.06537 20.7052 5.04382 19.4996 5.04382C18.294 5.04382 17.3158 4.06537 17.3158 2.85743Z" fill="#D3D2D2" stroke="#BDBCBC" stroke-width="0.404406" stroke-miterlimit="3.864"/>
<path d="M18.6662 31.3795C18.6662 30.4823 19.3915 29.7556 20.2869 29.7556C21.1808 29.7556 21.9076 30.4823 21.9076 31.3795C21.9076 32.2767 21.1808 33.0033 20.2869 33.0033C19.3915 33.0033 18.6662 32.2767 18.6662 31.3795Z" fill="#D3D2D2" stroke="white" stroke-width="0.404406" stroke-miterlimit="3.864"/>
</svg>
